<mxfile host="app.diagrams.net" modified="2022-04-29T20:02:27.392Z" agent="5.0 (Windows NT 10.0; Win64; x64) AppleWebKit/537.36 (KHTML, like Gecko) Chrome/98.0.4758.141 YaBrowser/22.3.3.852 Yowser/2.5 Safari/537.36" etag="ERKphvOJl9jhEcJ9HPYs" version="17.5.0" type="github">
  <diagram name="Page-1" id="edf60f1a-56cd-e834-aa8a-f176f3a09ee4">
    <mxGraphModel dx="1038" dy="575" grid="1" gridSize="10" guides="1" tooltips="1" connect="1" arrows="1" fold="1" page="1" pageScale="1" pageWidth="1100" pageHeight="850" background="none" math="0" shadow="0">
      <root>
        <mxCell id="0" />
        <mxCell id="1" parent="0" />
        <mxCell id="R_N7XS1BsPj6MM9q6bRl-10" style="edgeStyle=orthogonalEdgeStyle;rounded=0;orthogonalLoop=1;jettySize=auto;html=1;exitX=0.5;exitY=1;exitDx=0;exitDy=0;entryX=0.5;entryY=0;entryDx=0;entryDy=0;fontSize=13;" parent="1" source="R_N7XS1BsPj6MM9q6bRl-1" target="R_N7XS1BsPj6MM9q6bRl-2" edge="1">
          <mxGeometry relative="1" as="geometry" />
        </mxCell>
        <mxCell id="R_N7XS1BsPj6MM9q6bRl-1" value="НАЧАЛО" style="rounded=1;whiteSpace=wrap;html=1;" parent="1" vertex="1">
          <mxGeometry x="440" y="20" width="120" height="60" as="geometry" />
        </mxCell>
        <mxCell id="R_N7XS1BsPj6MM9q6bRl-11" style="edgeStyle=orthogonalEdgeStyle;rounded=0;orthogonalLoop=1;jettySize=auto;html=1;exitX=0.5;exitY=1;exitDx=0;exitDy=0;entryX=0.5;entryY=0;entryDx=0;entryDy=0;fontSize=13;" parent="1" source="R_N7XS1BsPj6MM9q6bRl-2" target="R_N7XS1BsPj6MM9q6bRl-4" edge="1">
          <mxGeometry relative="1" as="geometry" />
        </mxCell>
        <mxCell id="R_N7XS1BsPj6MM9q6bRl-2" value="N&lt;br&gt;val100, val10, val1" style="shape=parallelogram;perimeter=parallelogramPerimeter;whiteSpace=wrap;html=1;fixedSize=1;" parent="1" vertex="1">
          <mxGeometry x="425" y="120" width="150" height="60" as="geometry" />
        </mxCell>
        <mxCell id="R_N7XS1BsPj6MM9q6bRl-12" value="НЕТ" style="edgeStyle=orthogonalEdgeStyle;rounded=0;orthogonalLoop=1;jettySize=auto;html=1;exitX=1;exitY=0.5;exitDx=0;exitDy=0;entryX=0;entryY=0.5;entryDx=0;entryDy=0;fontSize=13;" parent="1" source="R_N7XS1BsPj6MM9q6bRl-4" target="R_N7XS1BsPj6MM9q6bRl-5" edge="1">
          <mxGeometry relative="1" as="geometry" />
        </mxCell>
        <mxCell id="R_N7XS1BsPj6MM9q6bRl-13" value="ДА" style="edgeStyle=orthogonalEdgeStyle;rounded=0;orthogonalLoop=1;jettySize=auto;html=1;exitX=0.5;exitY=1;exitDx=0;exitDy=0;entryX=0.5;entryY=0;entryDx=0;entryDy=0;fontSize=13;" parent="1" source="R_N7XS1BsPj6MM9q6bRl-4" target="R_N7XS1BsPj6MM9q6bRl-6" edge="1">
          <mxGeometry relative="1" as="geometry" />
        </mxCell>
        <mxCell id="R_N7XS1BsPj6MM9q6bRl-4" value="N &amp;gt;= 100" style="rhombus;whiteSpace=wrap;html=1;" parent="1" vertex="1">
          <mxGeometry x="460" y="230" width="80" height="80" as="geometry" />
        </mxCell>
        <mxCell id="R_N7XS1BsPj6MM9q6bRl-5" value="Ошибка, неверное число" style="shape=document;whiteSpace=wrap;html=1;boundedLbl=1;" parent="1" vertex="1">
          <mxGeometry x="700" y="230" width="120" height="80" as="geometry" />
        </mxCell>
        <mxCell id="R_N7XS1BsPj6MM9q6bRl-14" style="edgeStyle=orthogonalEdgeStyle;rounded=0;orthogonalLoop=1;jettySize=auto;html=1;exitX=0.5;exitY=1;exitDx=0;exitDy=0;entryX=0.5;entryY=0;entryDx=0;entryDy=0;fontSize=13;" parent="1" source="R_N7XS1BsPj6MM9q6bRl-6" target="R_N7XS1BsPj6MM9q6bRl-8" edge="1">
          <mxGeometry relative="1" as="geometry" />
        </mxCell>
        <mxCell id="R_N7XS1BsPj6MM9q6bRl-6" value="val100 = N div 100&lt;br&gt;val10 = (N mod 100) div 10&lt;br&gt;val1 = N mod 10" style="rounded=0;whiteSpace=wrap;html=1;" parent="1" vertex="1">
          <mxGeometry x="410" y="350" width="180" height="60" as="geometry" />
        </mxCell>
        <mxCell id="R_N7XS1BsPj6MM9q6bRl-7" value="&lt;b style=&quot;font-size: 13px;&quot;&gt;div&lt;/b&gt;&amp;nbsp; - целочисленное деление&lt;br style=&quot;font-size: 13px;&quot;&gt;&lt;div style=&quot;text-align: left; font-size: 13px;&quot;&gt;&lt;span style=&quot;font-size: 13px;&quot;&gt;&lt;b style=&quot;font-size: 13px;&quot;&gt;mod&lt;/b&gt; - остаток от деления&lt;/span&gt;&lt;/div&gt;" style="text;html=1;resizable=0;autosize=1;align=center;verticalAlign=middle;points=[];fillColor=none;strokeColor=none;rounded=0;fontSize=13;" parent="1" vertex="1">
          <mxGeometry x="190" y="360" width="200" height="40" as="geometry" />
        </mxCell>
        <mxCell id="R_N7XS1BsPj6MM9q6bRl-15" style="edgeStyle=orthogonalEdgeStyle;rounded=0;orthogonalLoop=1;jettySize=auto;html=1;entryX=0.5;entryY=0;entryDx=0;entryDy=0;fontSize=13;exitX=0.523;exitY=0.882;exitDx=0;exitDy=0;exitPerimeter=0;" parent="1" source="R_N7XS1BsPj6MM9q6bRl-5" target="R_N7XS1BsPj6MM9q6bRl-9" edge="1">
          <mxGeometry relative="1" as="geometry">
            <Array as="points">
              <mxPoint x="763" y="560" />
              <mxPoint x="500" y="560" />
            </Array>
          </mxGeometry>
        </mxCell>
        <mxCell id="R_N7XS1BsPj6MM9q6bRl-17" style="edgeStyle=orthogonalEdgeStyle;rounded=0;orthogonalLoop=1;jettySize=auto;html=1;entryX=0.5;entryY=0;entryDx=0;entryDy=0;fontSize=13;" parent="1" source="R_N7XS1BsPj6MM9q6bRl-8" target="R_N7XS1BsPj6MM9q6bRl-9" edge="1">
          <mxGeometry relative="1" as="geometry" />
        </mxCell>
        <mxCell id="R_N7XS1BsPj6MM9q6bRl-8" value="val100, val10, val1" style="shape=document;whiteSpace=wrap;html=1;boundedLbl=1;fontSize=13;" parent="1" vertex="1">
          <mxGeometry x="440" y="460" width="120" height="80" as="geometry" />
        </mxCell>
        <mxCell id="R_N7XS1BsPj6MM9q6bRl-9" value="КОНЕЦ" style="rounded=1;whiteSpace=wrap;html=1;fontSize=13;" parent="1" vertex="1">
          <mxGeometry x="440" y="590" width="120" height="60" as="geometry" />
        </mxCell>
      </root>
    </mxGraphModel>
  </diagram>
</mxfile>
